<svg id="visual" viewBox="0 0 960 540" width="960" height="540" xmlns="http://www.w3.org/2000/svg" xmlns:xlink="http://www.w3.org/1999/xlink" version="1.1"><rect x="0" y="0" width="960" height="540" fill="#fff"></rect><defs><linearGradient id="grad1_0" x1="43.8%" y1="0%" x2="100%" y2="100%"><stop offset="14.444444444444446%" stop-color="#0066ff" stop-opacity="1"></stop><stop offset="85.55555555555554%" stop-color="#0066ff" stop-opacity="1"></stop></linearGradient></defs><defs><linearGradient id="grad1_1" x1="43.8%" y1="0%" x2="100%" y2="100%"><stop offset="14.444444444444446%" stop-color="#0066ff" stop-opacity="1"></stop><stop offset="85.55555555555554%" stop-color="#acafff" stop-opacity="1"></stop></linearGradient></defs><defs><linearGradient id="grad1_2" x1="43.8%" y1="0%" x2="100%" y2="100%"><stop offset="14.444444444444446%" stop-color="#ffffff" stop-opacity="1"></stop><stop offset="85.55555555555554%" stop-color="#acafff" stop-opacity="1"></stop></linearGradient></defs><defs><linearGradient id="grad2_0" x1="0%" y1="0%" x2="56.3%" y2="100%"><stop offset="14.444444444444446%" stop-color="#0066ff" stop-opacity="1"></stop><stop offset="85.55555555555554%" stop-color="#0066ff" stop-opacity="1"></stop></linearGradient></defs><defs><linearGradient id="grad2_1" x1="0%" y1="0%" x2="56.3%" y2="100%"><stop offset="14.444444444444446%" stop-color="#acafff" stop-opacity="1"></stop><stop offset="85.55555555555554%" stop-color="#0066ff" stop-opacity="1"></stop></linearGradient></defs><defs><linearGradient id="grad2_2" x1="0%" y1="0%" x2="56.3%" y2="100%"><stop offset="14.444444444444446%" stop-color="#acafff" stop-opacity="1"></stop><stop offset="85.55555555555554%" stop-color="#ffffff" stop-opacity="1"></stop></linearGradient></defs><g transform="translate(960, 0)"><path d="M0 189C-24.2 186.2 -48.5 183.4 -72.3 174.6C-96.2 165.9 -119.6 151.2 -130.8 130.8C-142 110.4 -141.1 84.4 -148.7 61.6C-156.4 38.9 -172.7 19.4 -189 0L0 0Z" fill="#d7d6ff"></path><path d="M0 126C-16.2 124.1 -32.3 122.2 -48.2 116.4C-64.1 110.6 -79.7 100.8 -87.2 87.2C-94.7 73.6 -94.1 56.2 -99.2 41.1C-104.3 25.9 -115.1 13 -126 0L0 0Z" fill="#7789ff"></path><path d="M0 63C-8.1 62.1 -16.2 61.1 -24.1 58.2C-32.1 55.3 -39.9 50.4 -43.6 43.6C-47.3 36.8 -47 28.1 -49.6 20.5C-52.1 13 -57.6 6.5 -63 0L0 0Z" fill="#0066ff"></path></g><g transform="translate(0, 540)"><path d="M0 -189C24.3 -186.3 48.6 -183.7 72.3 -174.6C96 -165.6 119.1 -150.2 129.4 -129.4C139.7 -108.6 137.2 -82.5 145 -60.1C152.9 -37.6 170.9 -18.8 189 0L0 0Z" fill="#d7d6ff"></path><path d="M0 -126C16.2 -124.2 32.4 -122.4 48.2 -116.4C64 -110.4 79.4 -100.1 86.3 -86.3C93.1 -72.4 91.5 -55 96.7 -40.1C101.9 -25.1 114 -12.5 126 0L0 0Z" fill="#7789ff"></path><path d="M0 -63C8.1 -62.1 16.2 -61.2 24.1 -58.2C32 -55.2 39.7 -50.1 43.1 -43.1C46.6 -36.2 45.7 -27.5 48.3 -20C51 -12.5 57 -6.3 63 0L0 0Z" fill="#0066ff"></path></g></svg>