<?xml version="1.0" encoding="UTF-8"?>
<!DOCTYPE svg PUBLIC "-//W3C//DTD SVG 1.1//EN" "http://www.w3.org/Graphics/SVG/1.1/DTD/svg11.dtd">
<!-- Creator: CorelDRAW 2020 (64-Bit) -->
<svg xmlns="http://www.w3.org/2000/svg" xml:space="preserve" width="8.34457in" height="8.34457in" version="1.1" style="shape-rendering:geometricPrecision; text-rendering:geometricPrecision; image-rendering:optimizeQuality; fill-rule:evenodd; clip-rule:evenodd"
viewBox="0 0 1846.37 1846.37"
 xmlns:xlink="http://www.w3.org/1999/xlink"
 xmlns:xodm="http://www.corel.com/coreldraw/odm/2003">
 <defs>
  <style type="text/css">
   <![CDATA[
    .str0 {stroke:black;stroke-width:1.54;stroke-miterlimit:2.61313}
    .fil0 {fill:black}
    .fil3 {fill:#0049BD}
    .fil2 {fill:#DE2418}
    .fil1 {fill:white}
    .fil4 {fill:black;fill-rule:nonzero}
   ]]>
  </style>
 </defs>
 <g id="Layer_x0020_1">
  <metadata id="CorelCorpID_0Corel-Layer"/>
  <g id="_2428946275088">
   <path class="fil0 str0" d="M923.19 1844.66l-460.97 -921.95 -460.97 -921.94 921.94 0 921.94 0 -460.97 921.94 -460.97 921.95zm0 -77.3l866.01 -1732.02 -1732.02 0 866.01 1732.02z"/>
   <polygon class="fil1 str0" points="923.19,1778.35 484.68,901.35 46.18,24.34 923.19,24.34 1800.19,24.34 1361.69,901.35 "/>
   <path class="fil0 str0" d="M923.19 1384.17l-292.6 -586.66 -292.6 -586.66 585.19 0 585.19 0 -292.6 586.66 -292.6 586.66zm0 -74.55l531.42 -1065.5 -1062.83 0 531.42 1065.5z"/>
   <polygon class="fil2" points="923.19,1309.62 1454.6,244.13 391.77,244.13 "/>
   <g>
    <path class="fil3" d="M765.52 447.09l0 419.34 103.63 0 0 -263.3 91.23 0 0 -104.41 -91.23 0 0 -51.62c0,-29.26 23.73,-52.98 52.99,-52.98 29.26,0 52.99,23.72 52.99,52.98l-0.02 0 0 38.4 103.66 0 0 -38.4c0,-86.5 -70.12,-156.62 -156.62,-156.62 -86.5,0 -156.62,70.12 -156.62,156.62z"/>
    <rect class="fil3" x="975.1" y="497.2" width="103.66" height="103.66"/>
    <rect class="fil3" x="975.1" y="615.61" width="103.66" height="250.82"/>
   </g>
   <g>
    <polygon class="fil4" points="288.18,73.36 262.65,73.36 262.65,171.98 288.18,171.98 288.18,132.06 325.06,132.06 325.06,171.98 350.73,171.98 350.73,73.36 325.06,73.36 325.06,110.17 288.18,110.17 "/>
    <polygon class="fil4" points="371.38,73.36 371.38,171.98 396.91,171.98 396.91,73.36 "/>
    <polygon class="fil4" points="439.76,171.98 448.58,115.2 472.42,171.98 483.1,171.98 508.02,115.2 515.61,171.98 542.39,171.98 526.91,73.36 500.13,73.36 477.99,125.99 457.09,73.36 430.62,73.36 413.13,171.98 "/>
    <path class="fil4" d="M589.63 134.86c7.67,0 16.82,-1.04 24.49,-8.57 7.67,-7.54 8.7,-14.45 8.7,-22.28 0,-8.28 -1.47,-14.39 -9.14,-21.78 -7.52,-7.25 -16.38,-8.87 -24.93,-8.87l-40.72 0 0 98.62 25.52 0 0 -37.11 16.08 0zm-16.08 -40.81l10.63 0c3.25,0 6.27,0.99 9.08,2.75 2.17,1.36 3.42,4.2 3.42,6.86 0,2.37 -0.47,5.95 -3.81,8.56 -3.32,2.59 -8.12,3.11 -10.77,3.11l-8.56 0 0 -21.28z"/>
    <path class="fil4" d="M631.12 73.36l0 56.63c0,10.5 1.03,23.07 9.59,32.38 6.05,6.5 17.12,11.83 32.6,11.83 13.87,0 24.2,-3.84 32.45,-12.27 10.62,-10.79 11.07,-21.59 11.07,-31.94l0 -56.63 -25.52 0 0 56.18c0,5.47 0.15,12.71 -5.75,17.89 -2.8,2.51 -7.38,4.29 -11.8,4.29 -4.42,0 -9.15,-1.92 -12.1,-4.73 -4.87,-4.73 -5.02,-11.09 -5.02,-15.23l0 -58.4 -25.52 0z"/>
    <polygon class="fil4" points="759.22,171.98 759.22,115 811.69,171.98 838.98,171.98 838.98,73.36 811.69,73.36 811.69,130.5 758,73.36 734.1,73.36 734.1,171.98 "/>
    <path class="fil4" d="M926.11 171.98l27.29 0 -37.03 -98.62 -27.88 0 -37.77 98.62 27 0 6.64 -16.56 35.7 0 6.05 16.56zm-34.67 -36.08l10.77 -31.94 11.06 31.94 -21.83 0z"/>
    <polygon class="fil4" points="1192.1,73.36 1134.79,73.36 1134.79,171.98 1160.75,171.98 1160.75,133.24 1189.25,133.24 1189.25,111.51 1160.75,111.51 1160.75,95.09 1192.1,95.09 "/>
    <polygon class="fil4" points="1207.55,73.36 1207.55,171.98 1233.51,171.98 1233.51,73.36 "/>
    <path class="fil4" d="M1248.55 163.11c7.97,4.88 14.95,7.24 16.78,7.84 8.14,2.66 14.78,3.25 21.76,3.25 11.79,0 23.25,-1.62 32.72,-10.05 7.98,-7.1 10.47,-15.82 10.47,-24.84 0,-6.8 -1.5,-12.27 -7.14,-17.59 -5.82,-5.62 -13.12,-7.84 -20.1,-9.76l-8.8 -2.37c-6.81,-1.77 -8.81,-3.55 -9.64,-4.43 -1.16,-1.33 -1.49,-2.66 -1.49,-4.44 0,-2.22 1.16,-3.84 2.83,-5.32 2.82,-2.37 6.64,-2.96 9.47,-2.96 3.82,0 10.3,0.59 18.93,6.65l11.46 -19.96c-10.47,-4.88 -22.88,-7.06 -33.85,-7.06 -13.45,0 -22.58,4.62 -28.22,9.65 -4.81,4.29 -9.28,10.59 -9.28,22.72 0,17.65 14.17,20.46 29.45,25.32 10.23,3.25 16.31,2.57 16.31,13.1 0,2.51 -1.16,4.73 -2.82,6.21 -1.83,1.77 -5.32,3.4 -11.13,3.4 -9.97,0 -19.27,-4.88 -25.42,-10.05l-12.29 20.7z"/>
    <polygon class="fil4" points="1342.25,73.36 1342.25,171.98 1368.21,171.98 1368.21,73.36 "/>
    <polygon class="fil4" points="1413.1,73.36 1387.14,73.36 1387.14,171.98 1413.1,171.98 1413.1,129.25 1450.21,171.98 1480.62,171.98 1435.37,118.4 1477.01,73.36 1445.38,73.36 1413.1,108.16 "/>
    <path class="fil4" d="M1565.41 171.98l27.76 0 -37.66 -98.62 -28.35 0 -38.41 98.62 27.45 0 6.75 -16.56 36.31 0 6.15 16.56zm-35.26 -36.08l10.95 -31.94 11.25 31.94 -22.2 0z"/>
    <polygon class="fil4" points="990.26,171.98 990.26,115 1042.73,171.98 1070.01,171.98 1070.01,73.36 1042.73,73.36 1042.73,130.5 989.04,73.36 965.14,73.36 965.14,171.98 "/>
   </g>
   <g>
    <path class="fil4" d="M296.15 220.8l-50.66 25.33c-9.39,4.69 -19.96,11.66 -22.74,26.94 -1.89,10.77 0.53,27.52 10.59,47.63 9,18.01 19.15,29.7 32.05,36.65 16.55,8.97 26.5,4.71 35.75,0.08l50.66 -25.33 -16.57 -33.14 -50.27 25.13c-4.89,2.45 -11.28,5.88 -19.74,0.53 -4.07,-2.51 -8.62,-7.66 -11.5,-13.41 -2.87,-5.74 -4.22,-12.74 -3.62,-17.83 1.07,-8.44 6.66,-11.47 10.37,-13.32l52.25 -26.12 -16.57 -33.14z"/>
    <polygon class="fil4" points="446.99,522.48 358.76,566.6 376.02,601.13 464.25,557.01 "/>
    <polygon class="fil4" points="473.37,575.24 411.86,672.79 429.91,708.9 544.93,718.37 527.12,682.75 449.81,677.19 491.28,611.06 "/>
    <polygon class="fil4" points="589.22,806.94 550.18,728.85 461.95,772.97 500.99,851.06 520.43,841.33 499.21,798.89 514.43,791.29 534.52,831.46 553.96,821.74 533.87,781.56 548.55,774.22 569.77,816.66 "/>
    <path class="fil4" d="M596.56 821.63l-88.23 44.11 17.26 34.53 33.86 -16.93 -16.2 52.26 20.35 40.71 15.25 -59.77c7.39,11 26.66,27.07 40.63,20.09 19.5,-9.75 16.7,-35.71 4,-61.12l-26.94 -53.89zm0.23 44.77l3.7 7.39c4.25,8.51 6.33,15.59 6.26,20.1 0.05,4.18 -1.62,7.25 -3.95,8.42 -2.45,1.22 -6.03,0.49 -9,-1.67 -4.68,-3.54 -9.65,-11.41 -12.56,-17.23l-3.69 -7.39 19.24 -9.62z"/>
    <polygon class="fil4" points="717.03,1062.57 628.81,1106.69 646.07,1141.22 734.3,1097.1 "/>
    <polygon class="fil4" points="773.47,1220.16 793.41,1210.19 747.8,1118.98 727.87,1128.95 742.04,1157.29 671.52,1192.55 688.79,1227.08 759.3,1191.82 "/>
    <path class="fil4" d="M745.68 1340.44l17.09 34.17 65.05 -90.48 -17.46 -34.91 -111.87 -3.17 16.9 33.8 18.97 0.9 22.35 44.71 -11.03 14.98zm10.57 -59.55l35.31 -0.8 -21.64 28.14 -13.67 -27.34z"/>
    <polygon class="fil4" points="291.39,431.8 342.35,406.32 326.37,501.76 344.55,538.13 432.76,494.03 414.58,457.65 363.47,483.21 378.78,386.06 362.85,354.2 274.64,398.31 "/>
    <path class="fil4" d="M573.43 975.99c0.96,12.83 3.5,23.2 4.19,25.91 3.05,12.06 6.96,21.19 11.62,30.51 7.87,15.75 16.98,30.32 30.84,39.2 11.67,7.48 21.14,6.9 29.21,2.87 6.08,-3.04 9.98,-7.49 10.97,-17.41 1.14,-10.28 -1.75,-21.03 -4.69,-31.21l-3.76 -12.81c-2.96,-9.89 -2.71,-13.34 -2.47,-14.85 0.41,-2.15 1.38,-3.19 2.97,-3.98 1.98,-0.99 4.21,-0.17 6.65,1.39 4,2.71 7.08,7.55 8.97,11.32 2.55,5.1 6.35,14.01 6.69,28.26l25.51 6.38c-2.62,-16.16 -8.96,-33.71 -16.28,-48.35 -8.98,-17.97 -19.21,-28.08 -27.47,-33.37 -7.04,-4.51 -15.67,-7.66 -26.52,-2.24 -15.79,7.9 -8.84,28.08 -2.99,50.65 3.92,15.11 8.59,22.93 -0.83,27.64 -2.25,1.12 -5.01,0.56 -7.44,-0.99 -2.81,-1.65 -6.59,-5.58 -10.47,-13.34 -6.65,-13.31 -8.5,-27.91 -7.98,-38.43l-26.72 -7.15z"/>
    <path class="fil4" d="M774.13 1377.39c0.96,12.83 3.5,23.2 4.19,25.91 3.05,12.06 6.96,21.19 11.62,30.51 7.87,15.75 16.98,30.32 30.84,39.2 11.67,7.48 21.14,6.9 29.21,2.87 6.08,-3.04 9.98,-7.49 10.97,-17.41 1.14,-10.28 -1.75,-21.03 -4.69,-31.21l-3.76 -12.81c-2.96,-9.89 -2.71,-13.34 -2.47,-14.85 0.41,-2.15 1.38,-3.19 2.97,-3.98 1.98,-0.99 4.21,-0.17 6.65,1.39 4,2.71 7.08,7.55 8.97,11.32 2.55,5.1 6.35,14.01 6.69,28.26l25.51 6.38c-2.62,-16.16 -8.96,-33.71 -16.28,-48.35 -8.98,-17.97 -19.21,-28.08 -27.47,-33.36 -7.04,-4.51 -15.67,-7.66 -26.52,-2.24 -15.79,7.89 -8.84,28.08 -2.99,50.65 3.92,15.11 8.59,22.93 -0.83,27.64 -2.25,1.12 -5.01,0.56 -7.44,-0.99 -2.81,-1.65 -6.59,-5.58 -10.47,-13.34 -6.65,-13.31 -8.5,-27.91 -7.98,-38.43l-26.72 -7.15z"/>
   </g>
   <g>
    <path class="fil4" d="M1106.73 1325.24l14.89 -30.27 -109.84 -3.02 -15.21 30.92 69.04 85.97 14.73 -29.94 -11.43 -14.76 19.47 -39.59 18.35 0.69zm-51.7 22.32l-23.15 -26.22 35.06 2.01 -11.91 24.21z"/>
    <path class="fil4" d="M1147.57 1242.21c10.11,-20.55 11.56,-39.78 9.13,-52.84 -2.97,-16.02 -11.5,-25.14 -23.33,-30.96 -9.67,-4.76 -23.91,-8.4 -40.91,0.71 -18.78,10.02 -29.92,29.62 -35.87,41.7l-20.13 40.93 89.64 44.09 21.46 -43.63zm-76 -21.93l3.73 -7.58c3.81,-7.75 9.14,-17.23 17.88,-22.11 7.1,-3.9 15.9,-3.83 24.23,0.27 9.95,4.89 13.02,12.9 13.89,18.25 1.92,11.03 -2.77,21.93 -6.5,29.5l-3.11 6.31 -50.12 -24.65z"/>
    <path class="fil4" d="M1117.91 1076.18l61.15 30.08c7.03,3.46 6.68,11.08 2.79,18.86 -1.24,2.49 -8.1,8.9 -13.33,11.25l4.89 25.13c15.74,-5.05 21.66,-12.8 28.93,-27.6 6.52,-13.26 8.57,-25.05 6.94,-36.66 -1.92,-13.73 -6.26,-17.3 -14.6,-21.4l-61.69 -30.34 -15.09 30.68z"/>
    <path class="fil4" d="M1270.36 992.57l15.15 -30.8 -110.19 -2.3 -15.48 31.46 68.67 86.71 14.99 -30.47 -11.37 -14.89 19.82 -40.29 18.41 0.58zm-52.04 23l-23.05 -26.43 35.17 1.79 -12.12 24.64z"/>
    <path class="fil4" d="M1311.59 908.75c10.11,-20.55 11.55,-39.78 9.13,-52.84 -2.97,-16.02 -11.5,-25.14 -23.33,-30.96 -9.67,-4.76 -23.91,-8.4 -40.9,0.71 -18.78,10.02 -29.92,29.62 -35.87,41.7l-20.13 40.93 89.64 44.09 21.46 -43.63zm-76 -21.93l3.73 -7.58c3.81,-7.75 9.14,-17.23 17.88,-22.11 7.1,-3.9 15.9,-3.83 24.23,0.27 9.95,4.89 13.02,12.9 13.89,18.25 1.92,11.03 -2.77,21.93 -6.5,29.5l-3.1 6.31 -50.12 -24.65z"/>
    <path class="fil4" d="M1434.04 659.79l15.19 -30.88 -110.24 -2.19 -15.51 31.54 68.62 86.82 15.02 -30.54 -11.36 -14.91 19.87 -40.39 18.42 0.56zm-52.08 23.1l-23.03 -26.46 35.18 1.76 -12.15 24.7z"/>
    <path class="fil4" d="M1544.97 434.27l14.89 -30.28 -109.84 -3.01 -15.21 30.93 69.03 85.99 14.73 -29.95 -11.43 -14.77 19.48 -39.61 18.35 0.69zm-51.71 22.33l-23.15 -26.23 35.06 2 -11.91 24.22z"/>
    <path class="fil4" d="M1281.74 743.11l61.15 30.08c7.03,3.46 6.68,11.08 2.79,18.86 -1.24,2.49 -8.1,8.9 -13.33,11.25l4.89 25.13c15.74,-5.05 21.66,-12.8 28.93,-27.6 6.52,-13.26 8.57,-25.05 6.94,-36.66 -1.92,-13.73 -6.26,-17.3 -14.6,-21.4l-61.69 -30.34 -15.09 30.68z"/>
    <path class="fil4" d="M1366.9 572.81l88.52 43.54 14.11 -28.69 -33.97 -16.71 48.41 -12.64 16.63 -33.82 -53.27 16.83c3.29,-10.51 2.68,-32.03 -11.34,-38.93 -19.56,-9.62 -36.68,4.54 -47.06,25.65l-22.02 44.77zm32.45 -21.08l3.02 -6.14c3.48,-7.07 7.3,-11.89 10.64,-13.94 3.01,-1.99 6.32,-2.21 8.66,-1.06 2.46,1.21 4.21,4.15 4.54,7.32 0.42,5.06 -2.15,12.34 -4.52,17.18l-3.02 6.14 -19.31 -9.5z"/>
    <polygon class="fil4" points="1582.53,357.9 1531.4,332.75 1612.98,295.99 1628.82,263.8 1540.32,220.27 1524.49,252.46 1575.77,277.68 1493.33,315.82 1479.46,344.01 1567.95,387.54 "/>
    <path class="fil4" d="M1017.03 1423.51c4.35,-8.83 8.6,-19.83 6.18,-31.99 -2.42,-12.16 -8.04,-16.4 -15.07,-19.86 -7.43,-3.65 -13.74,-4.66 -24.72,0.92 -10.76,5.46 -17.24,14.95 -22.08,24.8l-23.07 46.89 88.49 43.53 14.46 -29.39 -33.3 -16.38 9.11 -18.52zm-45.73 0.51l6.02 -12.24c1.84,-3.74 4.44,-6.78 7.62,-9.25 2.45,-1.89 5.71,-2.09 8.09,-0.91 2.12,1.04 5.07,3.17 5.52,8.17 0.45,4.96 -1.81,10.72 -3.31,13.77l-4.85 9.86 -19.1 -9.39z"/>
   </g>
  </g>
 </g>
</svg>
